HIERARCHY
ROOT hip
{
  OFFSET 8.41971 77.8308 246.887
  CHANNELS 6 Xposition Yposition Zposition Zrotation Xrotation Yrotation
  JOINT abdomen
  {
    OFFSET 0 20.6881 -0.73152
    CHANNELS 3 Zrotation Xrotation Yrotation
    JOINT chest
    {
      OFFSET 0 11.7043 -0.48768
      CHANNELS 3 Zrotation Xrotation Yrotation
      JOINT neck
      {
        OFFSET 0 22.1894 -2.19456
        CHANNELS 3 Zrotation Xrotation Yrotation
        JOINT head
        {
          OFFSET -0.24384 7.07133 1.2192
          CHANNELS 3 Zrotation Xrotation Yrotation
          JOINT leftEye
          {
            OFFSET 4.14528 8.04674 8.04672
            CHANNELS 3 Zrotation Xrotation Yrotation
            End Site
            {
              OFFSET 1 0 0
            }
          }
          JOINT rightEye
          {
            OFFSET -3.6576 8.04674 8.04672
            CHANNELS 3 Zrotation Xrotation Yrotation
            End Site
            {
              OFFSET 1 0 0
            }
          }
        }
      }
      JOINT rCollar
      {
        OFFSET -2.68224 19.2634 -4.8768
        CHANNELS 3 Zrotation Xrotation Yrotation
        JOINT rShldr
        {
          OFFSET -8.77824 -1.95073 1.46304
          CHANNELS 3 Zrotation Xrotation Yrotation
          JOINT rForeArm
          {
            OFFSET -28.1742 -1.7115 0.48768
            CHANNELS 3 Zrotation Xrotation Yrotation
            JOINT rHand
            {
              OFFSET -22.5879 0.773209 7.07136
              CHANNELS 3 Zrotation Xrotation Yrotation
              JOINT rThumb1
              {
                OFFSET -1.2192 -0.487915 3.41376
                CHANNELS 3 Zrotation Xrotation Yrotation
                JOINT rThumb2
                {
                  OFFSET -3.37035 -0.52449 3.41376
                  CHANNELS 3 Zrotation Xrotation Yrotation
                  End Site
                  {
                    OFFSET -1.78271 -1.18214 1.43049
                  }
                }
              }
              JOINT rIndex1
              {
                OFFSET -7.75947 0.938293 5.60832
                CHANNELS 3 Zrotation Xrotation Yrotation
                JOINT rIndex2
                {
                  OFFSET -2.54057 -0.884171 1.56538
                  CHANNELS 3 Zrotation Xrotation Yrotation
                  End Site
                  {
                    OFFSET -1.62519 -0.234802 1.16502
                  }
                }
              }
              JOINT rMid1
              {
                OFFSET -8.24714 1.18213 3.41376
                CHANNELS 3 Zrotation Xrotation Yrotation
                JOINT rMid2
                {
                  OFFSET -3.10165 -0.590103 1.0647
                  CHANNELS 3 Zrotation Xrotation Yrotation
                  End Site
                  {
                    OFFSET -2.48547 -0.328903 0.83742
                  }
                }
              }
              JOINT rRing1
              {
                OFFSET -8.82822 0.546677 1.51678
                CHANNELS 3 Zrotation Xrotation Yrotation
                JOINT rRing2
                {
                  OFFSET -2.60934 -0.819778 -0.0198488
                  CHANNELS 3 Zrotation Xrotation Yrotation
                  End Site
                  {
                    OFFSET -2.33842 -0.294052 0.168128
                  }
                }
              }
              JOINT rPinky1
              {
                OFFSET -8.27202 -0.0477905 -0.4584
                CHANNELS 3 Zrotation Xrotation Yrotation
                JOINT rPinky2
                {
                  OFFSET -1.82734 -0.647385 -0.700984
                  CHANNELS 3 Zrotation Xrotation Yrotation
                  End Site
                  {
                    OFFSET -1.69225 -0.51767 -0.607171
                  }
                }
              }
            }
          }
        }
      }
      JOINT lCollar
      {
        OFFSET 2.68224 19.2634 -4.8768
        CHANNELS 3 Zrotation Xrotation Yrotation
        JOINT lShldr
        {
          OFFSET 8.77824 -1.95073 1.46304
          CHANNELS 3 Zrotation Xrotation Yrotation
          JOINT lForeArm
          {
            OFFSET 28.1742 -1.7115 0.48768
            CHANNELS 3 Zrotation Xrotation Yrotation
            JOINT lHand
            {
              OFFSET 22.5879 0.773209 7.07136
              CHANNELS 3 Zrotation Xrotation Yrotation
              JOINT lThumb1
              {
                OFFSET 1.2192 -0.487915 3.41376
                CHANNELS 3 Zrotation Xrotation Yrotation
                JOINT lThumb2
                {
                  OFFSET 3.37035 -0.52449 3.41376
                  CHANNELS 3 Zrotation Xrotation Yrotation
                  End Site
                  {
                    OFFSET 1.78271 -1.18214 1.43049
                  }
                }
              }
              JOINT lIndex1
              {
                OFFSET 7.75947 0.938293 5.60832
                CHANNELS 3 Zrotation Xrotation Yrotation
                JOINT lIndex2
                {
                  OFFSET 2.54057 -0.884171 1.56538
                  CHANNELS 3 Zrotation Xrotation Yrotation
                  End Site
                  {
                    OFFSET 1.62519 -0.234802 1.16502
                  }
                }
              }
              JOINT lMid1
              {
                OFFSET 8.24714 1.18213 3.41376
                CHANNELS 3 Zrotation Xrotation Yrotation
                JOINT lMid2
                {
                  OFFSET 3.10165 -0.590103 1.0647
                  CHANNELS 3 Zrotation Xrotation Yrotation
                  End Site
                  {
                    OFFSET 2.48547 -0.328903 0.83742
                  }
                }
              }
              JOINT lRing1
              {
                OFFSET 8.82822 0.546677 1.51678
                CHANNELS 3 Zrotation Xrotation Yrotation
                JOINT lRing2
                {
                  OFFSET 2.60934 -0.819778 -0.0198488
                  CHANNELS 3 Zrotation Xrotation Yrotation
                  End Site
                  {
                    OFFSET 2.33842 -0.294052 0.168128
                  }
                }
              }
              JOINT lPinky1
              {
                OFFSET 8.27202 -0.0477905 -0.4584
                CHANNELS 3 Zrotation Xrotation Yrotation
                JOINT lPinky2
                {
                  OFFSET 1.82734 -0.647385 -0.700984
                  CHANNELS 3 Zrotation Xrotation Yrotation
                  End Site
                  {
                    OFFSET 1.69225 -0.51767 -0.607171
                  }
                }
              }
            }
          }
        }
      }
    }
  }
  JOINT rButtock
  {
    OFFSET -8.77824 4.35084 1.2192
    CHANNELS 3 Zrotation Xrotation Yrotation
    JOINT rThigh
    {
      OFFSET 0 -1.70687 -2.19456
      CHANNELS 3 Zrotation Xrotation Yrotation
      JOINT rShin
      {
        OFFSET 0 -36.8199 0.73152
        CHANNELS 3 Zrotation Xrotation Yrotation
        JOINT rFoot
        {
          OFFSET 0.73152 -45.1104 -5.12064
          CHANNELS 3 Zrotation Xrotation Yrotation
          End Site
          {
            OFFSET -1.1221 -3.69964 12.103
          }
        }
      }
    }
  }
  JOINT lButtock
  {
    OFFSET 8.77824 4.35084 1.2192
    CHANNELS 3 Zrotation Xrotation Yrotation
    JOINT lThigh
    {
      OFFSET 0 -1.70687 -2.19456
      CHANNELS 3 Zrotation Xrotation Yrotation
      JOINT lShin
      {
        OFFSET 0 -36.8199 0.73152
        CHANNELS 3 Zrotation Xrotation Yrotation
        JOINT lFoot
        {
          OFFSET -0.73152 -45.1104 -5.12064
          CHANNELS 3 Zrotation Xrotation Yrotation
          End Site
          {
            OFFSET 1.1221 -3.69964 12.103
          }
        }
      }
    }
  }
}
MOTION
Frames:	5
Frame Time:	0.00833333
23.0838 84.1089 -157.708 1.1432 0.00299691 -0.0214201 -1.50367 -0.00293059 -0.0409971 -0.414508 0.00075538 -0.0717866 2.39944e-014 7.95139e-016 4.96962e-016 7.23048e-014 3.18055e-015 1.63687e-015 -0 0 0 -0 0 0 1.23734e-014 -5.04727e-018 4.47265e-016 2.54493e-013 -9.31803e-017 7.35503e-015 4.33455e-012 -1.30442e-012 8.5875e-014 4.97123e-011 1.30582e-012 1.16408e-012 1.17237e-010 1.656e-015 2.72892e-012 2.02461e-010 3.18055e-015 4.70245e-012 1.1724e-010 1.19271e-015 2.71937e-012 7.73091 5.47488 0.417314 1.17238e-010 8.94531e-016 2.7321e-012 2.90554 0.965183 0.102902 1.1724e-010 1.68967e-015 2.72892e-012 10.2786 0.731801 0.0259123 1.17229e-010 6.36111e-015 2.73846e-012 2.22167 -0.733487 -0.20892 1.21773e-014 -1.74713e-018 1.49089e-016 2.50968e-013 -1.2424e-016 5.56597e-015 4.34946e-012 1.30005e-012 6.04305e-014 4.96941e-011 -1.30413e-012 1.20861e-012 1.17233e-010 -8.31282e-015 2.72255e-012 2.02458e-010 -1.27222e-014 4.70484e-012 1.17231e-010 -9.93923e-015 2.72892e-012 -7.73091 5.47488 -0.417314 1.17234e-010 -8.94531e-015 2.72574e-012 -2.90554 0.965183 -0.102902 1.17228e-010 -8.64713e-015 2.72494e-012 -10.2786 0.731801 -0.0259123 1.17241e-010 -3.57812e-015 2.71619e-012 -2.22167 -0.733487 0.20892 -2.03217e-016 0 -3.88251e-019 -0.636512 -1.92306 -0.00650116 -0.00920388 -2.07856 -0.075979 -0.50423 3.99732 0.13914 2.03217e-016 0 3.88251e-019 -1.65056 -6.46946 0.152909 -0.00229014 6.15685 -0.0670233 0.526498 0.308423 -0.0661683 
20.1436 82.0732 -159.908 -1.07467 2.35985 -2.92267 0.231671 -0.836654 0.507549 -0.00717303 -0.0375751 0.0772982 -4.37943 -0.447124 -3.21627 7.30411 -1.97621 -4.63979 -0 0 0 -0 0 0 4.26995e-015 -1.03242e-013 -7.26729e-015 21.6972 14.1043 -0.811468 -15.0811 -12.3172 14.559 0.797033 -20.0398 -2.23199 -6.8744e-010 2.22194e-009 1.77278e-010 -1.18659e-009 3.78411e-009 2.61762e-010 -6.87436e-010 2.22194e-009 1.77269e-010 7.73091 5.47488 0.417314 -6.8744e-010 2.22194e-009 1.77278e-010 2.90554 0.965183 0.102902 -6.87435e-010 2.22194e-009 1.77275e-010 10.2786 0.731801 0.0259123 -6.87446e-010 2.22194e-009 1.77284e-010 2.22167 -0.733487 -0.20892 4.10294e-015 -1.03238e-013 -7.50645e-015 -21.7404 17.1001 -0.563023 19.2131 -16.8937 -15.1542 -0.205207 -10.0779 1.33853 7.44011e-010 2.60215e-009 7.24685e-010 1.2617e-009 4.51191e-009 1.26917e-009 7.44011e-010 2.60216e-009 7.24695e-010 -7.73091 5.47488 -0.417314 7.44013e-010 2.60215e-009 7.24688e-010 -2.90554 0.965183 -0.102902 7.44006e-010 2.60215e-009 7.24686e-010 -10.2786 0.731801 -0.0259123 7.44019e-010 2.60216e-009 7.24678e-010 -2.22167 -0.733487 0.20892 -2.03217e-016 0 -3.88251e-019 0.457945 -9.28927 1.55991 0.0160061 8.21614 0.0941352 -0.769832 -0.370863 -2.34922 2.03217e-016 0 3.88251e-019 0.521776 -12.258 1.31031 -0.0158215 15.6886 -0.232361 0.851862 -3.89328 2.41719 
20.2311 82.0826 -159.785 -3.16073 4.83457 -5.99855 2.08149 -1.71847 1.08988 0.42567 -0.0850925 0.235603 -9.05858 -0.925966 -6.61079 14.668 -4.00673 -9.55283 -0 0 0 -0 0 0 -6.31868e-015 -2.18717e-013 -1.29024e-014 45.1267 29.0064 -1.85398 -24.0578 -22.6172 31.9555 -0.560649 -41.1164 -5.72984 -1.61198e-009 4.76654e-009 3.67305e-010 -2.78186e-009 8.11532e-009 5.38833e-010 -1.61197e-009 4.76655e-009 3.67297e-010 7.73091 5.47488 0.417314 -1.61198e-009 4.76654e-009 3.67303e-010 2.90554 0.965183 0.102902 -1.61197e-009 4.76654e-009 3.67299e-010 10.2786 0.731801 0.0259123 -1.61198e-009 4.76655e-009 3.67308e-010 2.22167 -0.733487 -0.20892 -6.45679e-015 -2.18712e-013 -1.30763e-014 -44.2768 35.1751 -1.35698 28.9765 -30.6121 -35.2699 0.121892 -20.7138 2.89864 1.44563e-009 5.49103e-009 1.52364e-009 2.44761e-009 9.52147e-009 2.66873e-009 1.44563e-009 5.49104e-009 1.52365e-009 -7.73091 5.47488 -0.417314 1.44563e-009 5.49103e-009 1.52364e-009 -2.90554 0.965183 -0.102902 1.44562e-009 5.49103e-009 1.52364e-009 -10.2786 0.731801 -0.0259123 1.44564e-009 5.49103e-009 1.52363e-009 -2.22167 -0.733487 0.20892 -2.03217e-016 0 -3.88251e-019 2.07745 -17.0644 3.32702 -0.0267191 19.1028 0.287883 -1.46621 -4.96861 -5.01138 2.03217e-016 0 3.88251e-019 3.08951 -18.375 2.60134 0.0363661 25.7675 -0.432789 1.59444 -8.308 5.08147 
20.3202 82.1125 -159.659 -4.79285 7.00052 -8.78371 3.75027 -2.50322 1.60601 0.808095 -0.114234 0.375469 -13.2881 -1.32448 -9.65112 20.9585 -5.77304 -13.9834 -0 0 0 -0 0 0 -1.19369e-014 -3.09717e-013 -2.26964e-014 66.6462 42.2727 -3.19151 -26.745 -27.0146 49.5081 -6.12753 -59.5654 -12.4918 -2.29679e-009 6.6658e-009 5.26375e-010 -3.96468e-009 1.13523e-008 7.7588e-010 -2.29679e-009 6.66581e-009 5.26369e-010 7.73091 5.47488 0.417314 -2.29679e-009 6.6658e-009 5.26371e-010 2.90554 0.965183 0.102902 -2.29679e-009 6.6658e-009 5.26368e-010 10.2786 0.731801 0.0259123 -2.2968e-009 6.66581e-009 5.26375e-010 2.22167 -0.733487 -0.20892 -1.20458e-014 -3.0971e-013 -2.28175e-014 -63.7037 51.2742 -2.58112 29.3727 -35.1068 -57.2198 0.983437 -30.1624 4.57396 1.99757e-009 7.80647e-009 2.16861e-009 3.3802e-009 1.35357e-008 3.79809e-009 1.99757e-009 7.80649e-009 2.16863e-009 -7.73091 5.47488 -0.417314 1.99757e-009 7.80647e-009 2.16861e-009 -2.90554 0.965183 -0.102902 1.99756e-009 7.80647e-009 2.16861e-009 -10.2786 0.731801 -0.0259123 1.99757e-009 7.80647e-009 2.1686e-009 -2.22167 -0.733487 0.20892 -2.03217e-016 0 -3.88251e-019 3.9528 -23.9485 5.06871 -0.135924 28.8047 0.492277 -2.4458 -9.03323 -7.41762 2.03217e-016 0 3.88251e-019 5.62826 -23.7963 3.86658 0.156131 34.7507 -0.654598 2.61305 -12.2039 7.53848 
20.3842 82.1617 -159.554 -5.79574 8.46339 -10.7863 4.93227 -3.04614 1.95529 1.06388 -0.097438 0.469233 -16.2828 -1.53907 -11.8035 25.2203 -7.02266 -17.1495 -0 0 0 -0 0 0 -5.12925e-015 -3.39528e-013 -4.28878e-014 82.2298 51.4852 -4.60211 -27.0557 -26.5256 61.7182 -18.2777 -71.678 -25.1133 -2.38231e-009 6.95169e-009 6.08055e-010 -4.11636e-009 1.18539e-008 9.12866e-010 -2.38231e-009 6.9517e-009 6.08049e-010 7.73091 5.47488 0.417314 -2.38231e-009 6.95169e-009 6.08049e-010 2.90554 0.965183 0.102902 -2.3823e-009 6.95169e-009 6.08046e-010 10.2786 0.731801 0.0259123 -2.38231e-009 6.95169e-009 6.08052e-010 2.22167 -0.733487 -0.20892 -5.20793e-015 -3.39521e-013 -4.29872e-014 -76.3911 62.4538 -4.23076 28.2836 -32.7241 -71.6239 1.99742 -36.7101 6.01532 2.17531e-009 8.68835e-009 2.42864e-009 3.67949e-009 1.50618e-008 4.25193e-009 2.17532e-009 8.68837e-009 2.42866e-009 -7.73091 5.47488 -0.417314 2.17531e-009 8.68835e-009 2.42865e-009 -2.90554 0.965183 -0.102902 2.17531e-009 8.68835e-009 2.42864e-009 -10.2786 0.731801 -0.0259123 2.17532e-009 8.68835e-009 2.42863e-009 -2.22167 -0.733487 0.20892 -2.03217e-016 0 -3.88251e-019 5.50117 -28.675 6.39421 -0.262786 35.5455 0.665995 -3.31446 -11.8435 -9.07572 2.03217e-016 0 3.88251e-019 7.54123 -27.5122 4.85829 0.294695 40.9962 -0.849324 3.53458 -14.8911 9.32922 
